<?xml version="1.0" encoding="iso-8859-1"?>
<!-- Uploaded to: SVG Repo, www.svgrepo.com, Generator: SVG Repo Mixer Tools -->
<svg height="800px" width="800px" version="1.1" id="Layer_1" xmlns="http://www.w3.org/2000/svg" xmlns:xlink="http://www.w3.org/1999/xlink" 
	 viewBox="0 0 512 512" xml:space="preserve">
<path style="fill:#C0FCFF;" d="M256,48.432c-68.784,0-124.541,55.76-124.541,124.541v166.054h249.081V172.973
	C380.541,104.192,324.781,48.432,256,48.432z"/>
<path style="fill:#89D2E8;" d="M380.541,172.973c0-68.781-55.76-124.541-124.541-124.541v290.595h124.541V172.973z"/>
<path style="fill:#B66D38;" d="M491.243,318.27h-27.676h-62.27V172.973c0-80.117-65.179-145.297-145.297-145.297
	s-145.297,65.18-145.297,145.297V318.27h-62.27H20.757C9.293,318.27,0,327.564,0,339.027s9.293,20.757,20.757,20.757h6.919v103.784
	c0,11.463,9.293,20.757,20.757,20.757h415.135c11.463,0,20.757-9.293,20.757-20.757V359.784h6.919
	c11.463,0,20.757-9.293,20.757-20.757S502.707,318.27,491.243,318.27z M110.703,442.811H69.189v-83.027h41.514V442.811z
	 M359.784,172.973h-83.027V71.279C324.07,80.921,359.784,122.854,359.784,172.973z M235.243,71.279v101.694h-83.027
	C152.216,122.854,187.93,80.921,235.243,71.279z M152.216,214.486h83.027V318.27h-83.027V214.486z M193.73,442.811h-41.514v-83.027
	h41.514V442.811z M276.757,442.811h-41.514v-83.027h41.514V442.811z M359.784,442.811H318.27v-83.027h41.514V442.811z
	 M276.757,318.27V214.486h83.027V318.27H276.757z M442.811,442.811h-41.514v-83.027h41.514V442.811z"/>
<path style="fill:#AA3827;" d="M491.243,318.27h-27.676h-62.27V172.973c0-80.117-65.179-145.297-145.297-145.297v332.108h20.757
	v83.027H256v41.514h207.568c11.463,0,20.757-9.293,20.757-20.757V359.784h6.919c11.463,0,20.757-9.293,20.757-20.757
	S502.707,318.27,491.243,318.27z M359.784,442.811H318.27v-83.027h41.514V442.811z M359.784,318.27h-83.027V214.486h83.027V318.27z
	 M276.757,172.973V71.279c47.313,9.642,83.027,51.576,83.027,101.694H276.757z M442.811,442.811h-41.514v-83.027h41.514V442.811z"/>
</svg>