<?xml version="1.0" encoding="UTF-8"?>
<svg version="1.1" xmlns="http://www.w3.org/2000/svg" width="512" height="512">
<path d="M0 0 C0.70487549 0.00054382 1.40975098 0.00108765 2.13598633 0.00164795 C13.63735004 0.04236593 24.47792364 0.91016547 35.5 4.375 C36.18900391 4.58930664 36.87800781 4.80361328 37.58789062 5.02441406 C69.16608513 15.19040264 95.21911357 37.4813559 110.375 66.96875 C122.77508781 91.93743201 123.9677813 117.4913644 123.80418181 144.96662927 C123.78511987 148.72213543 123.78364181 152.47765299 123.78010559 156.23320007 C123.77087012 163.30867944 123.74637468 170.38401574 123.71605712 177.45943278 C123.6822444 185.52987889 123.66596036 193.6003327 123.65097082 201.67083228 C123.6198149 218.23898456 123.56491273 234.80694035 123.5 251.375 C142.31 251.375 161.12 251.375 180.5 251.375 C180.17 245.765 179.84 240.155 179.5 234.375 C177.52 232.725 175.54 231.075 173.5 229.375 C171.11177335 224.70238263 171.06405836 220.3495121 172.5 215.375 C175.07091929 211.43292376 177.5461981 208.97974821 182.125 207.5625 C186.76103334 207.30494259 190.37860748 208.24782967 194.5 210.375 C197.94270703 213.81770703 198.7652233 216.64389374 199 221.375 C198.80305287 226.04546048 197.68522357 228.83586271 194.5 232.375 C193.18839454 233.08345842 191.85748461 233.75899858 190.5 234.375 C190.48786972 235.19519119 190.48786972 235.19519119 190.47549438 236.0319519 C190.38961231 241.70953114 190.29011675 247.3867546 190.18261719 253.06396484 C190.14427158 255.1843469 190.10942867 257.30479526 190.078125 259.42529297 C190.03259534 262.46866598 189.97458161 265.51158032 189.9140625 268.5546875 C189.89673569 269.98287308 189.89673569 269.98287308 189.87905884 271.43991089 C189.85918915 272.32067291 189.83931946 273.20143494 189.81884766 274.10888672 C189.80552399 274.88610077 189.79220032 275.66331482 189.7784729 276.46408081 C189.5 278.375 189.5 278.375 187.5 280.375 C185.52880859 280.60205078 185.52880859 280.60205078 183.1484375 280.5703125 C182.29765625 280.56386719 181.446875 280.55742187 180.5703125 280.55078125 C179.68085938 280.53402344 178.79140625 280.51726562 177.875 280.5 C176.9778125 280.49097656 176.080625 280.48195313 175.15625 280.47265625 C172.93723414 280.4490497 170.71874923 280.4161231 168.5 280.375 C168.50276538 281.5227111 168.50276538 281.5227111 168.50558662 282.69360828 C168.5497216 301.29610404 168.58283509 319.89858938 168.60362434 338.50112629 C168.61394463 347.49710786 168.62801932 356.49305451 168.65087891 365.48901367 C168.67078977 373.32828408 168.68371096 381.16752921 168.68817699 389.0068242 C168.69078828 393.15912039 168.69694152 397.31134427 168.71146011 401.46361732 C168.72500767 405.36972586 168.72922839 409.27573208 168.72621536 413.18186188 C168.7267668 414.61739596 168.73076108 416.05293338 168.73841095 417.48844719 C168.74832741 419.4448132 168.74478524 421.40123377 168.74050903 423.35762024 C168.74235262 424.4536321 168.74419621 425.54964396 168.74609566 426.67886829 C168.5 429.375 168.5 429.375 166.5 432.375 C164.5546875 432.66796875 164.5546875 432.66796875 162.375 432.5625 C161.09625 432.500625 159.8175 432.43875 158.5 432.375 C158.26216797 433.17550781 158.26216797 433.17550781 158.01953125 433.9921875 C153.52267003 448.35232997 153.52267003 448.35232997 149.5 452.375 C147.91400243 452.47740851 146.32344134 452.50975003 144.73414898 452.5148077 C143.69657284 452.52049894 142.65899671 452.52619018 141.58997887 452.53205389 C140.4361176 452.53323376 139.28225633 452.53441364 138.09342957 452.53562927 C136.8784988 452.54071709 135.66356804 452.54580491 134.41182119 452.55104691 C131.02412437 452.5640861 127.63647176 452.57254866 124.24875963 452.5790199 C121.34687985 452.58537834 118.4450179 452.59545017 115.5431492 452.60558056 C105.98047784 452.63894977 96.41779564 452.66043398 86.8550851 452.67878041 C84.3663485 452.6835728 81.87761234 452.68855643 79.3888762 452.69358563 C63.94659005 452.72455346 48.50430021 452.75124954 33.06199169 452.76800442 C29.48297812 452.77195417 25.90396461 452.77595712 22.32495117 452.7800293 C21.43536271 452.78103766 20.54577425 452.78204602 19.62922857 452.78308494 C5.21155536 452.80009958 -9.20594644 452.84121559 -23.62353591 452.89205229 C-38.4131887 452.94377352 -53.20275322 452.9729394 -67.99249572 452.9802013 C-76.3015405 452.98487049 -84.61030458 452.9996937 -92.91926003 453.0399456 C-99.99429291 453.07417751 -107.0689945 453.08821294 -114.14410547 453.07552146 C-117.75592687 453.06967829 -121.36704705 453.07367259 -124.97876358 453.1036911 C-128.89028577 453.13593697 -132.80084983 453.12196143 -136.71247864 453.10325623 C-137.85964774 453.12005115 -139.00681685 453.13684608 -140.18874866 453.15414995 C-143.08503531 453.11934409 -145.68173086 453.04193612 -148.5 452.375 C-151.14394665 449.52577305 -151.14394665 449.52577305 -152.5 446.375 C-152.98984375 445.33859375 -153.4796875 444.3021875 -153.984375 443.234375 C-154.40203125 442.20828125 -154.8196875 441.1821875 -155.25 440.125 C-155.67796875 439.08859375 -156.1059375 438.0521875 -156.546875 436.984375 C-157.5 434.375 -157.5 434.375 -157.5 432.375 C-159.51822917 432.47265625 -161.53645833 432.5703125 -163.5546875 432.66796875 C-164.19664062 432.57128906 -164.83859375 432.47460938 -165.5 432.375 C-167.83569605 428.87145593 -167.74747428 427.49846127 -167.74050903 423.35762024 C-167.74325836 422.09978729 -167.74600769 420.84195435 -167.74884033 419.54600525 C-167.74176204 418.1495657 -167.73449242 416.75312711 -167.72705078 415.35668945 C-167.72648672 413.8882854 -167.72680312 412.41988078 -167.72793579 410.95147705 C-167.72851051 406.96206326 -167.71673692 402.97276931 -167.70278788 398.98338342 C-167.69030039 394.8153597 -167.68911158 390.64733336 -167.68673706 386.47929382 C-167.68051645 378.58514807 -167.6640978 370.6910576 -167.64403808 362.79693621 C-167.62169713 353.81034648 -167.61069019 344.82375413 -167.60064721 335.83714354 C-167.57973207 317.349731 -167.54454482 298.86236994 -167.5 280.375 C-168.06509277 280.38547363 -168.63018555 280.39594727 -169.21240234 280.40673828 C-171.76655653 280.44824788 -174.32063982 280.4743096 -176.875 280.5 C-177.76445312 280.51675781 -178.65390625 280.53351563 -179.5703125 280.55078125 C-180.42109375 280.55722656 -181.271875 280.56367188 -182.1484375 280.5703125 C-182.93395996 280.58078613 -183.71948242 280.59125977 -184.52880859 280.60205078 C-186.5 280.375 -186.5 280.375 -188.5 278.375 C-188.73809814 276.49099731 -188.73809814 276.49099731 -188.72363281 274.17236328 C-188.72413635 273.30451202 -188.72463989 272.43666077 -188.72515869 271.54251099 C-188.71788757 270.60293549 -188.71061646 269.66335999 -188.703125 268.6953125 C-188.71367342 266.71483717 -188.72542982 264.73436797 -188.73828125 262.75390625 C-188.74860378 259.6242145 -188.74997047 256.49537601 -188.72998047 253.36572266 C-188.71523639 250.34984546 -188.73764994 247.33605523 -188.765625 244.3203125 C-188.75025696 243.38478546 -188.73488892 242.44925842 -188.71905518 241.48538208 C-188.75673452 238.97339666 -188.84034037 236.79980934 -189.5 234.375 C-192.3137861 231.79660592 -192.3137861 231.79660592 -195.5 230.375 C-198.43472105 226.15103733 -198.1008936 221.31481361 -197.5 216.375 C-196.03333939 212.8677681 -194.8540064 211.12249666 -191.51171875 209.27734375 C-186.90178525 207.43814748 -183.04922851 206.8905984 -178.29296875 208.45703125 C-174.47248558 210.41305205 -172.19853883 213.235996 -170.87109375 217.30078125 C-169.93852111 222.35630663 -170.9025682 225.87278487 -173.5 230.375 C-175.975 232.355 -175.975 232.355 -178.5 234.375 C-178.83 239.985 -179.16 245.595 -179.5 251.375 C-160.69 251.375 -141.88 251.375 -122.5 251.375 C-122.51571045 247.36512939 -122.5314209 243.35525879 -122.54760742 239.22387695 C-122.59754471 225.90476094 -122.63069846 212.58564613 -122.65543652 199.26646137 C-122.67082243 191.19915768 -122.6917509 183.13194347 -122.72631836 175.06469727 C-122.7564771 168.02291091 -122.77563489 160.98118945 -122.78226548 153.93934029 C-122.78613357 150.22013722 -122.7950448 146.50111957 -122.81719017 142.7819767 C-123.06110006 100.11096341 -115.20798039 64.49242013 -84.5 33.375 C-68.75109132 17.59771491 -48.07154764 7.38632619 -26.5 2.375 C-25.7049707 2.18953613 -24.90994141 2.00407227 -24.09082031 1.81298828 C-16.08775733 0.14729322 -8.1512163 -0.02368705 0 0 Z M-82.18359375 43.9921875 C-104.58279561 67.5445464 -113.9167378 97.43740363 -113.72705078 129.56225586 C-113.7264845 130.90435274 -113.72680744 132.24645023 -113.72793579 133.58854675 C-113.72850186 137.17850954 -113.71687082 140.76833446 -113.70278788 144.35826564 C-113.69015382 148.12983265 -113.68910015 151.90140398 -113.68673706 155.67298889 C-113.68055908 162.79112875 -113.66419898 169.90920604 -113.64403808 177.02731854 C-113.62156336 185.14116701 -113.61065676 193.25501871 -113.60064721 201.36889064 C-113.57982879 218.03763123 -113.54431547 234.70630511 -113.5 251.375 C-108.88 251.375 -104.26 251.375 -99.5 251.375 C-99.49413376 249.65659912 -99.48826752 247.93819824 -99.48222351 246.16772461 C-99.42486175 229.92599088 -99.35220371 213.68439229 -99.26428509 197.4427948 C-99.21947819 189.09403757 -99.18002949 180.74532156 -99.15356445 172.39648438 C-99.13046118 165.11258707 -99.09692784 157.82882189 -99.05129844 150.54502964 C-99.0275309 146.69470378 -99.00869508 142.84450743 -99.00238609 138.99411011 C-98.94254024 106.67138677 -94.8734779 79.28731227 -72.5 54.375 C-71.87609375 53.66859375 -71.2521875 52.9621875 -70.609375 52.234375 C-53.89805685 34.39960689 -28.58197589 24.10538144 -4.37890625 23.171875 C24.1593891 22.65197985 49.6834366 31.63357001 70.5 51.375 C88.09700537 68.53139177 99.26076726 92.86412468 99.65821838 117.53172302 C99.67879552 120.02819333 99.69413115 122.52471021 99.70532227 125.02124023 C99.71491347 126.40156845 99.72492427 127.7818938 99.73532104 129.16221619 C99.76224162 132.89306925 99.78332031 136.6239348 99.80332303 140.3548305 C99.8252623 144.25993773 99.85261197 148.16500704 99.87937927 152.07008362 C99.92919917 159.45760048 99.97417749 166.84513851 100.01740164 174.23269659 C100.06686576 182.6462668 100.12174973 191.05979894 100.17708123 199.47333229 C100.29073686 216.77385319 100.39741911 234.07441001 100.5 251.375 C105.12 251.375 109.74 251.375 114.5 251.375 C114.56980073 233.98823357 114.62316341 216.60152412 114.65543652 199.2146492 C114.67082766 191.13946985 114.6917665 183.0643798 114.72631836 174.98925781 C114.75646069 167.94125512 114.77563112 160.89331717 114.78226548 153.8452518 C114.78613627 150.1221684 114.79506561 146.39927002 114.81719017 142.67624664 C115.03869368 103.84820945 108.64543063 70.30093562 80.73046875 41.51171875 C58.71994622 19.66279076 29.67094858 8.69704549 -1.13769531 8.34765625 C-32.42497191 8.70980745 -60.14340293 22.49738714 -82.18359375 43.9921875 Z M4.5 31.375 C4.5 54.145 4.5 76.915 4.5 100.375 C8.6391627 96.2765022 8.6391627 96.2765022 12.26953125 91.90625 C12.75776367 91.26324951 13.24599609 90.62024902 13.74902344 89.95776367 C14.2649707 89.27045166 14.78091797 88.58313965 15.3125 87.875 C16.45958587 86.36063955 17.60672375 84.8463185 18.75390625 83.33203125 C19.3586377 82.53104004 19.96336914 81.73004883 20.58642578 80.90478516 C23.27075771 77.35604217 25.97229212 73.82052245 28.67260742 70.28393555 C34.98809434 62.01049182 41.27982995 53.72039482 47.5 45.375 C44.75210275 41.97382906 40.97723736 40.55496072 37.0625 38.875 C35.98887207 38.41262939 35.98887207 38.41262939 34.89355469 37.94091797 C24.77575314 33.69541794 15.60770108 32.30064176 4.5 31.375 Z M-48.5 45.375 C-45.32808371 50.36277992 -41.7300014 54.84703326 -37.9375 59.375 C-33.53305179 64.67600472 -29.17268373 70.00015199 -24.9375 75.4375 C-20.8426228 80.68767651 -16.69241531 85.88981221 -12.5 91.0625 C-11.94755615 91.74642822 -11.3951123 92.43035645 -10.82592773 93.13500977 C-10.04584351 94.09491821 -10.04584351 94.09491821 -9.25 95.07421875 C-8.79109375 95.63971436 -8.3321875 96.20520996 -7.859375 96.7878418 C-6.48720367 98.38994054 -4.99157208 99.88342792 -3.5 101.375 C-3.5 78.275 -3.5 55.175 -3.5 31.375 C-19.598853 31.375 -34.88817316 37.03821716 -48.5 45.375 Z M54.5 50.375 C52.66183048 52.43831444 50.94868346 54.51271589 49.25 56.6875 C48.72132324 57.35612061 48.19264648 58.02474121 47.64794922 58.71362305 C42.92123486 64.73766376 38.38653984 70.89915471 33.87646484 77.08618164 C29.10339091 83.61668056 24.16537966 90.00494 19.11767578 96.32543945 C18.57095215 97.01726318 18.02422852 97.70908691 17.4609375 98.421875 C16.98446777 99.01838867 16.50799805 99.61490234 16.01708984 100.22949219 C13.96158898 103.13643482 12.26637999 106.28383501 10.5 109.375 C36.9 109.375 63.3 109.375 90.5 109.375 C87.57000365 85.93502918 75.8416686 67.07248512 58.27734375 51.66796875 C56.59676187 50.17890754 56.59676187 50.17890754 54.5 50.375 Z M-56.5 51.375 C-73.6592129 65.44481014 -84.95966704 83.53958295 -89.5 105.375 C-89.5 106.695 -89.5 108.015 -89.5 109.375 C-63.1 109.375 -36.7 109.375 -9.5 109.375 C-13.15140184 104.50646422 -16.79990098 99.65505838 -20.5625 94.875 C-21.0280127 94.28315918 -21.49352539 93.69131836 -21.97314453 93.08154297 C-27.17939727 86.48374136 -32.48905033 79.97087799 -37.80322266 73.45996094 C-39.56643343 71.29336813 -41.32124841 69.12019711 -43.07421875 66.9453125 C-43.6583252 66.2219873 -44.24243164 65.49866211 -44.84423828 64.75341797 C-45.96023366 63.37102983 -47.07458777 61.98731451 -48.18701172 60.60205078 C-50.81559099 57.35163909 -53.4620848 54.25992667 -56.5 51.375 Z M-90.5 118.375 C-90.5 162.265 -90.5 206.155 -90.5 251.375 C-61.79 251.375 -33.08 251.375 -3.5 251.375 C-3.5 207.485 -3.5 163.595 -3.5 118.375 C-32.21 118.375 -60.92 118.375 -90.5 118.375 Z M4.5 118.375 C4.5 162.265 4.5 206.155 4.5 251.375 C33.21 251.375 61.92 251.375 91.5 251.375 C91.5 207.485 91.5 163.595 91.5 118.375 C62.79 118.375 34.08 118.375 4.5 118.375 Z M-188.5 218.375 C-188.7502157 221.45865871 -188.7502157 221.45865871 -188.5 224.375 C-186.025 225.365 -186.025 225.365 -183.5 226.375 C-182.18 225.055 -180.86 223.735 -179.5 222.375 C-180.20339566 219.86534386 -180.20339566 219.86534386 -181.5 217.375 C-184.82658403 215.76536256 -185.30217502 216.24311668 -188.5 218.375 Z M184.5 216.375 C183.18 217.695 181.86 219.015 180.5 220.375 C181.20339566 222.88465614 181.20339566 222.88465614 182.5 225.375 C184.38850355 226.45142709 184.38850355 226.45142709 186.5 226.375 C187.49 225.715 188.48 225.055 189.5 224.375 C189.7502157 221.29134129 189.7502157 221.29134129 189.5 218.375 C187.025 217.385 187.025 217.385 184.5 216.375 Z M-179.5 260.375 C-179.5 264.005 -179.5 267.635 -179.5 271.375 C-60.7 271.375 58.1 271.375 180.5 271.375 C180.5 267.745 180.5 264.115 180.5 260.375 C61.7 260.375 -57.1 260.375 -179.5 260.375 Z M-158.5 280.375 C-158.5 327.895 -158.5 375.415 -158.5 424.375 C-147.94 424.375 -137.38 424.375 -126.5 424.375 C-126.37411434 417.01768235 -126.25393816 409.66426895 -126.1894989 402.30680847 C-126.1578295 398.88066486 -126.11552583 395.4554136 -126.04736328 392.02978516 C-125.96962194 388.09809186 -125.94056852 384.16676115 -125.9140625 380.234375 C-125.88309479 379.00821472 -125.85212708 377.78205444 -125.82022095 376.51873779 C-125.81896473 373.35624844 -125.86070697 370.47230136 -126.5 367.375 C-129.21956598 364.54844824 -129.21956598 364.54844824 -132.5 363.375 C-135.44504225 360.83617047 -136.36077702 358.82885307 -136.73828125 354.88671875 C-136.89682895 348.85356139 -136.79537816 345.00948696 -132.5 340.375 C-131.47310059 339.92286133 -130.44620117 339.47072266 -129.38818359 339.00488281 C-125.98288967 335.90413673 -126.04075566 335.20560241 -125.81884766 330.78027344 C-125.81979734 328.43142638 -125.85368286 326.08244606 -125.9140625 323.734375 C-125.92679703 321.87839691 -125.92679703 321.87839691 -125.93978882 319.98492432 C-125.96767997 316.70278093 -126.02153534 313.42241491 -126.0880127 310.14086914 C-126.14950583 306.7893919 -126.17630618 303.43783826 -126.20703125 300.0859375 C-126.26810679 293.51420945 -126.38552203 286.94688335 -126.5 280.375 C-137.06 280.375 -147.62 280.375 -158.5 280.375 Z M-117.5 280.375 C-117.68380176 288.24273654 -117.84299396 296.10301716 -117.93945312 303.97119141 C-117.97514898 306.6475693 -118.034203 309.32052625 -118.10351562 311.99658203 C-118.20067845 315.84451578 -118.24595737 319.69012507 -118.28125 323.5390625 C-118.32254028 324.73302643 -118.36383057 325.92699036 -118.40637207 327.15713501 C-118.55946885 333.26149115 -118.55946885 333.26149115 -115.73608398 338.39935303 C-113.63132652 340.01771758 -113.63132652 340.01771758 -111.41784668 341.22689819 C-108.4251157 343.0184699 -107.55960263 345.12996694 -106.5 348.375 C-105.84146967 353.45509113 -106.86486119 356.94898597 -108.94140625 361.48046875 C-110.5 363.375 -110.5 363.375 -117.5 367.375 C-117.5 386.185 -117.5 404.995 -117.5 424.375 C-106.94 424.375 -96.38 424.375 -85.5 424.375 C-85.5 405.565 -85.5 386.755 -85.5 367.375 C-87.81 366.055 -90.12 364.735 -92.5 363.375 C-95.96429333 359.33332445 -96.64285702 354.58035279 -96.5 349.375 C-94.51025258 342.63196709 -91.13855502 340.13403668 -85.5 336.375 C-85.06116834 333.91297982 -85.06116834 333.91297982 -85.15942383 331.00732422 C-85.15965042 329.88631317 -85.15987701 328.76530212 -85.16011047 327.61032104 C-85.17559433 326.39571198 -85.19107819 325.18110291 -85.20703125 323.9296875 C-85.21339851 322.06946457 -85.21339851 322.06946457 -85.21989441 320.17166138 C-85.23386784 316.87364537 -85.26082639 313.5760665 -85.29400635 310.27819824 C-85.32468761 306.91338556 -85.33855982 303.54850703 -85.35351562 300.18359375 C-85.38410494 293.58037936 -85.44281981 286.97825256 -85.5 280.375 C-96.06 280.375 -106.62 280.375 -117.5 280.375 Z M-76.5 280.375 C-76.68380176 288.24273654 -76.84299396 296.10301716 -76.93945312 303.97119141 C-76.97514898 306.6475693 -77.034203 309.32052625 -77.10351562 311.99658203 C-77.20067845 315.84451578 -77.24595737 319.69012507 -77.28125 323.5390625 C-77.32254028 324.73302643 -77.36383057 325.92699036 -77.40637207 327.15713501 C-77.56683245 333.25211929 -77.56683245 333.25211929 -74.74047852 338.37078857 C-72.63979849 339.96806061 -72.63979849 339.96806061 -70.43005371 341.14755249 C-67.61716144 342.93645484 -66.69880962 345.02951421 -65.7734375 348.16015625 C-65.24137876 352.46983205 -65.95763339 356.33844595 -67.5 360.375 C-70.34069958 363.9632521 -72.37967959 365.3148398 -76.5 367.375 C-76.5 386.185 -76.5 404.995 -76.5 424.375 C-65.94 424.375 -55.38 424.375 -44.5 424.375 C-44.33204451 417.03394544 -44.17185427 409.69986832 -44.08599854 402.35855865 C-44.04380042 398.93994233 -43.98745901 395.52292038 -43.89648438 392.10522461 C-43.79268474 388.18102485 -43.75406858 384.25746871 -43.71875 380.33203125 C-43.67745972 379.11103226 -43.63616943 377.89003326 -43.59362793 376.6320343 C-43.37229492 370.55764562 -43.37229492 370.55764562 -46.26391602 365.56210327 C-48.37325822 364.20624356 -48.37325822 364.20624356 -50.58215332 363.28788757 C-52.5 362.375 -52.5 362.375 -54.5 359.5625 C-56.1861005 354.18805465 -56.30430341 350.18468268 -54 345 C-53.505 344.13375 -53.01 343.2675 -52.5 342.375 C-52.5 341.715 -52.5 341.055 -52.5 340.375 C-51.736875 340.08625 -50.97375 339.7975 -50.1875 339.5 C-47.34970692 338.41230987 -47.34970692 338.41230987 -44.5 336.375 C-44.06116834 333.91297982 -44.06116834 333.91297982 -44.15942383 331.00732422 C-44.15965042 329.88631317 -44.15987701 328.76530212 -44.16011047 327.61032104 C-44.17559433 326.39571198 -44.19107819 325.18110291 -44.20703125 323.9296875 C-44.21339851 322.06946457 -44.21339851 322.06946457 -44.21989441 320.17166138 C-44.23386784 316.87364537 -44.26082639 313.5760665 -44.29400635 310.27819824 C-44.32468761 306.91338556 -44.33855982 303.54850703 -44.35351562 300.18359375 C-44.38410494 293.58037936 -44.44281981 286.97825256 -44.5 280.375 C-55.06 280.375 -65.62 280.375 -76.5 280.375 Z M-35.5 280.375 C-35.68380176 288.24273654 -35.84299396 296.10301716 -35.93945312 303.97119141 C-35.97514898 306.6475693 -36.034203 309.32052625 -36.10351562 311.99658203 C-36.20067845 315.84451578 -36.24595737 319.69012507 -36.28125 323.5390625 C-36.32254028 324.73302643 -36.36383057 325.92699036 -36.40637207 327.15713501 C-36.57032875 333.25180033 -36.57032875 333.25180033 -33.73608398 338.36199951 C-31.63203915 339.95310017 -31.63203915 339.95310017 -29.41784668 341.12313843 C-27.12034786 342.62281539 -26.46804931 343.83732126 -25.5 346.375 C-24.8226982 351.58864875 -24.86409705 356.02982068 -27.125 360.8125 C-29.5 363.375 -29.5 363.375 -32.61181641 364.73144531 C-36.03208716 367.86201943 -35.96114693 368.59850671 -36.18115234 373.06152344 C-36.18020252 375.45268441 -36.14630904 377.84397608 -36.0859375 380.234375 C-36.07744781 381.49388977 -36.06895813 382.75340454 -36.06021118 384.05108643 C-36.03231583 387.39267527 -35.97846396 390.73179157 -35.9119873 394.07269287 C-35.85049978 397.48443896 -35.82285353 400.89644858 -35.79296875 404.30859375 C-35.7318897 410.99878598 -35.61447358 417.68465527 -35.5 424.375 C-24.94 424.375 -14.38 424.375 -3.5 424.375 C-3.5 405.565 -3.5 386.755 -3.5 367.375 C-5.81 366.055 -8.12 364.735 -10.5 363.375 C-14.28814947 359.20803559 -14.86217848 355.18022662 -14.7734375 349.72265625 C-14.30231653 345.67774624 -12.99385816 343.63619913 -10.5 340.375 C-8.19 339.055 -5.88 337.735 -3.5 336.375 C-3.5 317.895 -3.5 299.415 -3.5 280.375 C-14.06 280.375 -24.62 280.375 -35.5 280.375 Z M4.5 280.375 C4.3163072 288.26103402 4.1570824 296.13965368 4.06054688 304.02612305 C4.02482596 306.70884497 3.96917134 309.3900526 3.89648438 312.07202148 C3.79944086 315.92736043 3.75407 319.78038155 3.71875 323.63671875 C3.67745972 324.83584396 3.63616943 326.03496918 3.59362793 327.27043152 C3.38222778 333.26337472 3.38222778 333.26337472 6.26391602 338.17666626 C8.37405352 339.53317151 8.37405352 339.53317151 10.58215332 340.46052551 C12.5 341.375 12.5 341.375 14.5 344.125 C16.18920562 349.61491828 16.25637317 354.26511695 14.3125 359.6875 C11.66047205 363.6198173 9.00305441 365.87398186 4.5 367.375 C4.5 386.185 4.5 404.995 4.5 424.375 C15.06 424.375 25.62 424.375 36.5 424.375 C36.62588566 417.01768235 36.74606184 409.66426895 36.8105011 402.30680847 C36.8421705 398.88066486 36.88447417 395.4554136 36.95263672 392.02978516 C37.03037806 388.09809186 37.05943148 384.16676115 37.0859375 380.234375 C37.11690521 379.00821472 37.14787292 377.78205444 37.17977905 376.51873779 C37.18103491 373.3571673 37.13749523 370.47174292 36.5 367.375 C33.79267164 364.61020726 33.79267164 364.61020726 30.5 363.375 C27.07082928 359.67510527 26.20030251 356.7957651 26 351.875 C26.20030251 346.9542349 27.07082928 344.07489473 30.5 340.375 C31.52689941 339.92286133 32.55379883 339.47072266 33.61181641 339.00488281 C37.01711033 335.90413673 36.95924434 335.20560241 37.18115234 330.78027344 C37.18020266 328.43142638 37.14631714 326.08244606 37.0859375 323.734375 C37.07320297 321.87839691 37.07320297 321.87839691 37.06021118 319.98492432 C37.03232003 316.70278093 36.97846466 313.42241491 36.9119873 310.14086914 C36.85049417 306.7893919 36.82369382 303.43783826 36.79296875 300.0859375 C36.73189321 293.51420945 36.61447797 286.94688335 36.5 280.375 C25.94 280.375 15.38 280.375 4.5 280.375 Z M45.5 280.375 C45.36232926 288.27832018 45.24285788 296.17749113 45.17041016 304.08105469 C45.14359915 306.77027943 45.1018329 309.45865757 45.04736328 312.14746094 C44.97467319 316.01001297 44.94056868 319.87126443 44.9140625 323.734375 C44.88309479 324.9386615 44.85212708 326.142948 44.82022095 327.38372803 C44.58553195 333.06524462 44.58553195 333.06524462 46.80535889 338.04406738 C48.97119639 339.55555317 50.84070533 340.375 53.5 340.375 C55.8674327 346.21466733 57.81210542 351.13832224 55.8515625 357.46875 C53.26592364 363.39140995 51.97622344 363.67430089 45.5 367.375 C45.5 386.185 45.5 404.995 45.5 424.375 C56.06 424.375 66.62 424.375 77.5 424.375 C77.5 405.565 77.5 386.755 77.5 367.375 C75.19 366.055 72.88 364.735 70.5 363.375 C67.32542968 359.56551561 66.35541744 355.28177079 66.5 350.375 C67.39389289 345.97736623 68.73086486 343.10567839 72 340 C72.825 339.46375 73.65 338.9275 74.5 338.375 C75.49 337.715 76.48 337.055 77.5 336.375 C77.93883166 333.91297982 77.93883166 333.91297982 77.84057617 331.00732422 C77.84034958 329.88631317 77.84012299 328.76530212 77.83988953 327.61032104 C77.82440567 326.39571198 77.80892181 325.18110291 77.79296875 323.9296875 C77.78660149 322.06946457 77.78660149 322.06946457 77.78010559 320.17166138 C77.76613216 316.87364537 77.73917361 313.5760665 77.70599365 310.27819824 C77.67531239 306.91338556 77.66144018 303.54850703 77.64648438 300.18359375 C77.61589506 293.58037936 77.55718019 286.97825256 77.5 280.375 C66.94 280.375 56.38 280.375 45.5 280.375 Z M86.5 280.375 C86.31619824 288.24273654 86.15700604 296.10301716 86.06054688 303.97119141 C86.02485102 306.6475693 85.965797 309.32052625 85.89648438 311.99658203 C85.79932155 315.84451578 85.75404263 319.69012507 85.71875 323.5390625 C85.67745972 324.73302643 85.63616943 325.92699036 85.59362793 327.15713501 C85.43717307 333.25708096 85.43717307 333.25708096 88.26171875 338.38616943 C90.36445549 339.99478522 90.36445549 339.99478522 92.5760498 341.1902771 C95.88931501 343.23050723 96.57115335 345.72153649 97.5 349.375 C97.73014405 355.35874522 96.53260909 359.79744374 92.5 364.375 C90.52 365.365 88.54 366.355 86.5 367.375 C86.5 386.185 86.5 404.995 86.5 424.375 C97.06 424.375 107.62 424.375 118.5 424.375 C118.66795549 417.03394544 118.82814573 409.69986832 118.91400146 402.35855865 C118.95619958 398.93994233 119.01254099 395.52292038 119.10351562 392.10522461 C119.20731526 388.18102485 119.24593142 384.25746871 119.28125 380.33203125 C119.32254028 379.11103226 119.36383057 377.89003326 119.40637207 376.6320343 C119.63357383 370.56214198 119.63357383 370.56214198 116.73608398 365.58187866 C114.62688651 364.24032586 114.62688651 364.24032586 112.41784668 363.34281921 C110.5 362.375 110.5 362.375 108.5 359 C107.08375226 353.86610193 106.81394413 350.21651839 108.6875 345.1875 C111.29496439 341.14143457 114.54475568 339.01182955 118.5 336.375 C118.93883166 333.91297982 118.93883166 333.91297982 118.84057617 331.00732422 C118.84034958 329.88631317 118.84012299 328.76530212 118.83988953 327.61032104 C118.82440567 326.39571198 118.80892181 325.18110291 118.79296875 323.9296875 C118.78660149 322.06946457 118.78660149 322.06946457 118.78010559 320.17166138 C118.76613216 316.87364537 118.73917361 313.5760665 118.70599365 310.27819824 C118.67531239 306.91338556 118.66144018 303.54850703 118.64648438 300.18359375 C118.61589506 293.58037936 118.55718019 286.97825256 118.5 280.375 C107.94 280.375 97.38 280.375 86.5 280.375 Z M127.5 280.375 C127.31619824 288.24273654 127.15700604 296.10301716 127.06054688 303.97119141 C127.02485102 306.6475693 126.965797 309.32052625 126.89648438 311.99658203 C126.79932155 315.84451578 126.75404263 319.69012507 126.71875 323.5390625 C126.67745972 324.73302643 126.63616943 325.92699036 126.59362793 327.15713501 C126.42967125 333.25180033 126.42967125 333.25180033 129.26391602 338.36199951 C131.36796085 339.95310017 131.36796085 339.95310017 133.58215332 341.12313843 C135.87965214 342.62281539 136.53195069 343.83732126 137.5 346.375 C138.1773018 351.58864875 138.13590295 356.02982068 135.875 360.8125 C133.5 363.375 133.5 363.375 130.38818359 364.73144531 C126.96791284 367.86201943 127.03885307 368.59850671 126.81884766 373.06152344 C126.81979748 375.45268441 126.85369096 377.84397608 126.9140625 380.234375 C126.92255219 381.49388977 126.93104187 382.75340454 126.93978882 384.05108643 C126.96768417 387.39267527 127.02153604 390.73179157 127.0880127 394.07269287 C127.14950022 397.48443896 127.17714647 400.89644858 127.20703125 404.30859375 C127.2681103 410.99878598 127.38552642 417.68465527 127.5 424.375 C138.06 424.375 148.62 424.375 159.5 424.375 C159.5 376.855 159.5 329.335 159.5 280.375 C148.94 280.375 138.38 280.375 127.5 280.375 Z M-127.4375 346.4375 C-129.15989792 349.57834326 -128.99148241 351.87318786 -128.5 355.375 C-126.50979883 358.03384601 -126.50979883 358.03384601 -123.5 359.375 C-119.95665039 359.375 -118.24333217 359.02241834 -115.5625 356.6875 C-114.09890511 353.50202876 -114.51071032 351.69618677 -115.5 348.375 C-116.5 346.375 -116.5 346.375 -118.5 345.375 C-121.9093712 345.00971023 -124.38023824 344.7609371 -127.4375 346.4375 Z M-87 347.5625 C-88.70098039 350.22058824 -88.70098039 350.22058824 -88.5 352.9375 C-87.2566834 355.96808422 -86.1919309 357.48337288 -83.5 359.375 C-80.27125213 359.30910719 -78.31584335 358.96578311 -75.6875 357.0625 C-74.25934368 355.03301471 -73.6467526 353.86979421 -73.5 351.375 C-74.64786941 349.13143706 -75.7095767 347.1654233 -77.5 345.375 C-81.75673949 344.89310496 -83.70593903 344.68019665 -87 347.5625 Z M-45.9375 347.5 C-47.74870485 350.28725693 -47.74870485 350.28725693 -47.5 353.5 C-46.6925204 356.39689293 -46.6925204 356.39689293 -44.8125 358.3125 C-41.62702876 359.77609489 -39.82118677 359.36428968 -36.5 358.375 C-34.51970318 357.31154948 -34.51970318 357.31154948 -33.5 355.375 C-32.95931438 351.74468224 -33.03620159 350.05285921 -35.125 347 C-37.44844013 345.17612622 -37.44844013 345.17612622 -40.5 344.8125 C-43.64627033 345.14003002 -43.64627033 345.14003002 -45.9375 347.5 Z M-4.9375 346.9375 C-6.82042676 349.39231429 -6.82042676 349.39231429 -6.5 352.9375 C-5.76294804 356.33774624 -5.76294804 356.33774624 -3.8125 358.375 C-0.60029355 359.76406225 1.1936636 359.43021374 4.5 358.375 C6.59764165 356.85605194 6.59764165 356.85605194 7.5 354.375 C7.50668717 350.75442732 7.50668717 350.75442732 6.5 347.375 C2.37551176 344.62534117 -0.66863319 344.20104692 -4.9375 346.9375 Z M36.125 347 C34.30112622 349.32344013 34.30112622 349.32344013 33.9375 352.375 C34.26503002 355.52127033 34.26503002 355.52127033 36.625 357.8125 C39.41225693 359.62370485 39.41225693 359.62370485 42.625 359.375 C45.52189293 358.5675204 45.52189293 358.5675204 47.4375 356.6875 C48.90109489 353.50202876 48.48928968 351.69618677 47.5 348.375 C46.43654948 346.39470318 46.43654948 346.39470318 44.5 345.375 C40.86968224 344.83431438 39.17785921 344.91120159 36.125 347 Z M76.625 346.5625 C75.17658924 348.89605067 74.70065793 350.63267499 74.5 353.375 C75.31393493 355.96479295 76.08128164 357.06096123 78.25 358.6875 C81.41642567 359.65501895 83.35522426 359.37865183 86.5 358.375 C88.79492223 355.70992902 89.54299299 354.27785284 89.375 350.75 C88.38729401 348.06908374 87.92194927 346.90890121 85.5 345.375 C80.83747833 344.83964557 80.83747833 344.83964557 76.625 346.5625 Z M117 347.5 C115.2590802 350.29629953 115.2590802 350.29629953 115.5 353.5 C116.3074796 356.39689293 116.3074796 356.39689293 118.1875 358.3125 C121.37297124 359.77609489 123.17881323 359.36428968 126.5 358.375 C128.5 357.375 128.5 357.375 129.5 355.375 C129.86528977 351.9656288 130.1140629 349.49476176 128.4375 346.4375 C124.20561636 344.11678962 120.62334051 344.42016057 117 347.5 Z M-147.5 432.375 C-145.18702878 440.62950068 -145.18702878 440.62950068 -142.5 444.375 C-140.33876395 444.82527973 -140.33876395 444.82527973 -137.78733635 444.74414349 C-136.2869865 444.7531032 -136.2869865 444.7531032 -134.75632656 444.76224393 C-133.64934103 444.7535054 -132.5423555 444.74476688 -131.40182495 444.73576355 C-130.23222013 444.73832682 -129.0626153 444.7408901 -127.85756791 444.74353105 C-124.60110429 444.74763112 -121.34499532 444.73820633 -118.08857369 444.72319686 C-114.58073681 444.71027986 -111.07291744 444.71462288 -107.56506348 444.71690369 C-101.48417078 444.71847918 -95.40337441 444.70904126 -89.32250595 444.69219017 C-80.53053269 444.66784197 -71.73860616 444.6599992 -62.94660284 444.6562262 C-48.68328822 444.64965513 -34.42002499 444.62967624 -20.15673828 444.60131836 C-6.29866799 444.57379471 7.55938837 444.55255285 21.41748047 444.53979492 C22.27123576 444.53900675 23.12499105 444.53821858 24.00461771 444.53740653 C28.28752073 444.5334915 32.57042385 444.52970036 36.85332704 444.52597082 C72.40225466 444.49485452 107.9511226 444.44200094 143.5 444.375 C144.33819158 442.75250059 145.1704116 441.12691503 146 439.5 C146.69609375 438.14261719 146.69609375 438.14261719 147.40625 436.7578125 C148.63905589 434.50903141 148.63905589 434.50903141 148.5 432.375 C50.82 432.375 -46.86 432.375 -147.5 432.375 Z " fill="#000000" transform="translate(255.5,29.625)"/>
<path d="M0 0 C2 3 2 3 1.83447266 4.96191406 C0.82023644 7.43904804 -0.42635262 8.7526548 -2.3515625 10.609375 C-3.03863281 11.28226563 -3.72570312 11.95515625 -4.43359375 12.6484375 C-5.15675781 13.34195313 -5.87992187 14.03546875 -6.625 14.75 C-11.43693085 19.41128108 -16.06477888 24.11426989 -20.43261719 29.19677734 C-22.46812536 31.53856291 -24.61508034 33.74777708 -26.8125 35.9375 C-27.56144531 36.68902344 -28.31039063 37.44054687 -29.08203125 38.21484375 C-32.37300656 41.27793075 -34.60285351 41.09559014 -39 41 C-39.9375 38.5 -39.9375 38.5 -40 35 C-35.22594773 27.68676935 -27.65169625 21.49912867 -21.47338867 15.34301758 C-19.67052659 13.54557764 -17.87315015 11.74277339 -16.07617188 9.93945312 C-14.93000853 8.79394953 -13.78353558 7.64875561 -12.63671875 6.50390625 C-12.10028244 5.96544571 -11.56384613 5.42698517 -11.01115417 4.87220764 C-7.28268443 1.1673475 -5.36556911 -0.53655691 0 0 Z " fill="#000000" transform="translate(315,186)"/>
<path d="M0 0 C2 2 2 2 2.31411743 4.39445496 C1.93521198 7.53740445 1.17633109 8.46022228 -1.02587891 10.6887207 C-2.01788803 11.70921257 -2.01788803 11.70921257 -3.02993774 12.75032043 C-3.75482391 13.4682225 -4.47971008 14.18612457 -5.2265625 14.92578125 C-5.96699799 15.67337204 -6.70743347 16.42096283 -7.4703064 17.19120789 C-9.03954954 18.76823447 -10.61522726 20.33888038 -12.19677734 21.90356445 C-14.61432682 24.30191159 -17.00115917 26.72808355 -19.38671875 29.15820312 C-20.91489473 30.68666949 -22.44478756 32.21342166 -23.9765625 33.73828125 C-24.68930328 34.46630447 -25.40204407 35.1943277 -26.13638306 35.94441223 C-31.16471358 40.85679941 -31.16471358 40.85679941 -35.37646484 41.57885742 C-38 41 -38 41 -40 39 C-39.70855554 35.07497953 -38.57532298 33.07072466 -35.84472656 30.3112793 C-35.18023499 29.63095139 -34.51574341 28.95062347 -33.83111572 28.24967957 C-33.10825378 27.5317775 -32.38539185 26.81387543 -31.640625 26.07421875 C-30.89923279 25.32662796 -30.15784058 24.57903717 -29.39398193 23.80879211 C-27.82528617 22.23299888 -26.25143695 20.66232152 -24.67285156 19.09643555 C-22.25707569 16.69453505 -19.86625736 14.2696147 -17.4765625 11.84179688 C-15.94936852 10.31365183 -14.42076879 8.78691011 -12.890625 7.26171875 C-12.17585999 6.53369553 -11.46109497 5.8056723 -10.72467041 5.05558777 C-10.04757019 4.39102066 -9.37046997 3.72645355 -8.67285156 3.04174805 C-7.78802094 2.15836006 -7.78802094 2.15836006 -6.88531494 1.25712585 C-4.42365156 -0.38430848 -2.90218732 -0.38176848 0 0 Z " fill="#000000" transform="translate(235,202)"/>
<path d="M0 0 C1.29176147 0.17402344 1.29176147 0.17402344 2.60961914 0.3515625 C3.26961914 2.0015625 3.92961914 3.6515625 4.60961914 5.3515625 C-1.41019816 12.55209744 -7.9621443 19.24390582 -14.55175781 25.91796875 C-15.82722844 27.21522409 -17.0963843 28.51871627 -18.359375 29.828125 C-20.2004747 31.7359708 -22.06037669 33.62351876 -23.92553711 35.5078125 C-24.48507584 36.09518188 -25.04461456 36.68255127 -25.62110901 37.28771973 C-28.37225615 40.0246667 -29.87329154 41.29608193 -33.79443359 41.71679688 C-34.65109619 41.59626953 -35.50775879 41.47574219 -36.39038086 41.3515625 C-37.32788086 38.8515625 -37.32788086 38.8515625 -37.39038086 35.3515625 C-36.34204102 33.75195312 -36.34204102 33.75195312 -34.74194336 32.0078125 C-34.10087646 31.30849609 -33.45980957 30.60917969 -32.79931641 29.88867188 C-32.00436768 29.05142578 -31.20941895 28.21417969 -30.39038086 27.3515625 C-29.91307526 26.84729736 -29.43576965 26.34303223 -28.94400024 25.82348633 C-25.55140923 22.24981874 -22.11739438 18.71965805 -18.65625 15.21240234 C-17.4292821 13.96364425 -16.20863087 12.70865058 -14.99414062 11.44775391 C-13.22253969 9.60939424 -11.43215285 7.79137335 -9.63647461 5.9765625 C-9.09880966 5.41106689 -8.56114471 4.84557129 -8.00718689 4.26293945 C-5.30225479 1.5725091 -3.85475978 0.39971586 0 0 Z " fill="#000000" transform="translate(328.390380859375,201.6484375)"/>
<path d="M0 0 C2.22705078 0.49023438 2.22705078 0.49023438 4.22705078 2.49023438 C4.60750455 5.39035808 4.60633968 6.91631148 2.97665405 9.38227844 C2.39074493 9.97518173 1.80483582 10.56808502 1.20117188 11.17895508 C0.20916275 12.19944695 0.20916275 12.19944695 -0.80288696 13.24055481 C-1.52777313 13.95845688 -2.2526593 14.67635895 -2.99951172 15.41601562 C-3.7399472 16.16360641 -4.48038269 16.9111972 -5.24325562 17.68144226 C-6.81249876 19.25846884 -8.38817648 20.82911476 -9.96972656 22.39379883 C-12.38727603 24.79214597 -14.77410838 27.21831793 -17.15966797 29.6484375 C-18.68784395 31.17690387 -20.21773678 32.70365603 -21.74951172 34.22851562 C-22.4622525 34.95653885 -23.17499329 35.68456207 -23.90933228 36.43464661 C-28.97888835 41.38730876 -28.97888835 41.38730876 -33.27441406 41.9440918 C-34.09893066 41.79431885 -34.92344727 41.6445459 -35.77294922 41.49023438 C-36.43294922 39.84023437 -37.09294922 38.19023437 -37.77294922 36.49023438 C-31.75161336 29.27258781 -25.1664209 22.59672114 -18.55664062 15.92382812 C-17.2752408 14.62571011 -15.99925226 13.32222997 -14.72851562 12.01367188 C-12.87766611 10.10826002 -11.01107883 8.21964541 -9.14013672 6.33398438 C-8.57543671 5.74661499 -8.01073669 5.15924561 -7.42892456 4.55407715 C-5.01634407 2.1542865 -3.40583102 0.60212262 0 0 Z " fill="#000000" transform="translate(216.77294921875,185.509765625)"/>
</svg>
